<?xml version="1.0"?>
<svg xmlns="http://www.w3.org/2000/svg" xmlns:xlink="http://www.w3.org/1999/xlink" version="1.1" id="Capa_1" x="0px" y="0px" width="512px" height="512px" viewBox="0 0 32.148 32.148" style="enable-background:new 0 0 32.148 32.148;" xml:space="preserve" class=""><g><g>
	<g>
		<path d="M3.171,19.56c0,0,0.313-1.268-0.739-2.367c-1.056-1.101-2.382-1.105-2.382-1.105s-0.33,1.489,0.698,2.562    C1.775,19.72,3.171,19.56,3.171,19.56z" data-original="#000000" class="active-path" data-old_color="#000000" fill="#09243F"/>
		<path d="M5.5,19.33c0,0,1.233-0.669,1.459-2.139c0.227-1.466-0.9-2.498-0.9-2.498s-1.08,0.768-1.313,2.274    C4.515,18.474,5.5,19.33,5.5,19.33z" data-original="#000000" class="active-path" data-old_color="#000000" fill="#09243F"/>
		<path d="M7.354,23.029c0,0,1.136-0.827,1.169-2.312c0.03-1.483-1.221-2.358-1.221-2.358s-0.971,0.9-1.004,2.425    C6.265,22.308,7.354,23.029,7.354,23.029z" data-original="#000000" class="active-path" data-old_color="#000000" fill="#09243F"/>
		<path d="M11.076,22.754c-0.108-1.479-1.436-2.233-1.436-2.233s-0.882,0.987-0.772,2.508c0.11,1.521,1.262,2.136,1.262,2.136    S11.183,24.234,11.076,22.754z" data-original="#000000" class="active-path" data-old_color="#000000" fill="#09243F"/>
		<path d="M13.617,27.009c0,0,0.743-1.191,0.214-2.58c-0.529-1.388-2.019-1.728-2.019-1.728s-0.561,1.202-0.019,2.627    C12.337,26.751,13.617,27.009,13.617,27.009z" data-original="#000000" class="active-path" data-old_color="#000000" fill="#09243F"/>
		<path d="M3.685,16.312c0,0,0.966-0.879,0.699-2.379c-0.267-1.499-1.366-2.242-1.366-2.242s-1.101,1.058-0.841,2.521    C2.437,15.672,3.685,16.312,3.685,16.312z" data-original="#000000" class="active-path" data-old_color="#000000" fill="#09243F"/>
		<path d="M4.443,22.437c0,0-0.074-1.305-1.404-2.045c-1.333-0.738-2.602-0.355-2.602-0.355s0.124,1.521,1.422,2.242    C3.159,23,4.443,22.437,4.443,22.437z" data-original="#000000" class="active-path" data-old_color="#000000" fill="#09243F"/>
		<path d="M6.688,24.969c0,0-0.362-1.255-1.823-1.681c-1.464-0.426-2.616,0.23-2.616,0.23s0.461,1.455,1.886,1.871    C5.562,25.806,6.688,24.969,6.688,24.969z" data-original="#000000" class="active-path" data-old_color="#000000" fill="#09243F"/>
		<path d="M9.199,26.773c0,0-0.724-1.086-2.246-1.049c-1.524,0.037-2.424,1.01-2.424,1.01s0.88,1.25,2.363,1.213    C8.377,27.913,9.199,26.773,9.199,26.773z" data-original="#000000" class="active-path" data-old_color="#000000" fill="#09243F"/>
		<path d="M10.271,27.509c-1.508,0.221-2.284,1.294-2.284,1.294s1.021,1.136,2.491,0.923c1.471-0.214,2.148-1.442,2.148-1.442    S11.778,27.292,10.271,27.509z" data-original="#000000" class="active-path" data-old_color="#000000" fill="#09243F"/>
		<path d="M4.182,17.058l-0.727-0.029c-0.002,0.08-0.183,7.955,11.7,11.505l0.208-0.696C4.048,24.457,4.169,17.357,4.182,17.058z" data-original="#000000" class="active-path" data-old_color="#000000" fill="#09243F"/>
		<path d="M28.977,19.581c0,0,1.396,0.16,2.423-0.912c1.028-1.072,0.698-2.562,0.698-2.562s-1.326,0.006-2.383,1.106    C28.662,18.314,28.977,19.581,28.977,19.581z" data-original="#000000" class="active-path" data-old_color="#000000" fill="#09243F"/>
		<path d="M25.188,17.212c0.226,1.469,1.459,2.139,1.459,2.139s0.984-0.855,0.755-2.361c-0.233-1.507-1.313-2.274-1.313-2.274    S24.962,15.746,25.188,17.212z" data-original="#000000" class="active-path" data-old_color="#000000" fill="#09243F"/>
		<path d="M24.846,18.379c0,0-1.251,0.875-1.222,2.358c0.033,1.483,1.169,2.312,1.169,2.312s1.089-0.722,1.057-2.245    C25.816,19.282,24.846,18.379,24.846,18.379z" data-original="#000000" class="active-path" data-old_color="#000000" fill="#09243F"/>
		<path d="M21.071,22.775c-0.106,1.479,0.946,2.408,0.946,2.408s1.15-0.613,1.262-2.135c0.109-1.521-0.772-2.509-0.772-2.509    S21.181,21.294,21.071,22.775z" data-original="#000000" class="active-path" data-old_color="#000000" fill="#09243F"/>
		<path d="M18.316,24.45c-0.529,1.388,0.214,2.579,0.214,2.579s1.279-0.258,1.823-1.68c0.542-1.425-0.02-2.628-0.02-2.628    S18.847,23.062,18.316,24.45z" data-original="#000000" class="active-path" data-old_color="#000000" fill="#09243F"/>
		<path d="M28.463,16.333c0,0,1.248-0.64,1.509-2.101c0.26-1.463-0.842-2.521-0.842-2.521s-1.1,0.743-1.365,2.242    C27.497,15.454,28.463,16.333,28.463,16.333z" data-original="#000000" class="active-path" data-old_color="#000000" fill="#09243F"/>
		<path d="M29.107,20.413c-1.33,0.739-1.404,2.044-1.404,2.044s1.285,0.564,2.584-0.157c1.298-0.721,1.422-2.243,1.422-2.243    S30.44,19.673,29.107,20.413z" data-original="#000000" class="active-path" data-old_color="#000000" fill="#09243F"/>
		<path d="M27.281,23.31c-1.461,0.426-1.823,1.681-1.823,1.681s1.128,0.836,2.555,0.421c1.425-0.415,1.886-1.871,1.886-1.871    S28.745,22.883,27.281,23.31z" data-original="#000000" class="active-path" data-old_color="#000000" fill="#09243F"/>
		<path d="M25.194,25.745c-1.522-0.037-2.246,1.05-2.246,1.05s0.821,1.139,2.307,1.174c1.483,0.036,2.363-1.213,2.363-1.213    S26.72,25.783,25.194,25.745z" data-original="#000000" class="active-path" data-old_color="#000000" fill="#09243F"/>
		<path d="M21.876,27.529c-1.508-0.217-2.354,0.773-2.354,0.773s0.678,1.229,2.147,1.443c1.471,0.213,2.491-0.924,2.491-0.924    S23.384,27.75,21.876,27.529z" data-original="#000000" class="active-path" data-old_color="#000000" fill="#09243F"/>
		<path d="M28.692,17.048l-0.728,0.029c0.013,0.301,0.134,7.398-11.181,10.779l0.208,0.695    C28.875,25.003,28.694,17.128,28.692,17.048z" data-original="#000000" class="active-path" data-old_color="#000000" fill="#09243F"/>
		<polygon points="21.771,20.214 20.945,13.495 25.443,8.924 18.996,8.062 16.076,2.404 16.076,2.376 13.15,8.042 6.704,8.903     11.202,13.475 10.377,20.193 16.071,17.099 16.071,17.117   " data-original="#000000" class="active-path" data-old_color="#000000" fill="#09243F"/>
	</g>
</g></g> </svg>
