<?xml version="1.0"?>
<svg xmlns="http://www.w3.org/2000/svg" xmlns:xlink="http://www.w3.org/1999/xlink" version="1.1" id="Capa_1" x="0px" y="0px" viewBox="0 0 368 368" style="enable-background:new 0 0 368 368;" xml:space="preserve" width="512px" height="512px"><g><g>
	<g>
		<path d="M344,111.997h-41.472c-3.312-9.288-12.112-16-22.528-16h-90.032l16.104-18.792c2.872-3.352,2.488-8.408-0.864-11.28    c-3.344-2.872-8.4-2.48-11.28,0.864l-25.032,29.208H24c-13.232,0-24,10.768-24,24v128c0,13.232,10.768,24,24,24h90.04    l-16.112,18.8c-2.872,3.352-2.488,8.408,0.864,11.28c1.512,1.288,3.36,1.92,5.208,1.92c2.256,0,4.496-0.952,6.08-2.792    l25.032-29.208H280c10.416,0,19.216-6.712,22.528-16H344c13.232,0,24-10.768,24-24v-96C368,122.765,357.232,111.997,344,111.997z     M127.752,255.997H24c-4.408,0-8-3.592-8-8v-128c0-4.408,3.584-8,8-8h131.184l-57.256,66.8c-2.032,2.368-2.504,5.712-1.192,8.552    c1.304,2.832,4.136,4.648,7.264,4.648h78.608L127.752,255.997z M288,247.997c0,4.408-3.592,8-8,8H148.824l57.248-66.792    c2.032-2.368,2.504-5.712,1.192-8.552c-1.304-2.832-4.136-4.656-7.264-4.656h-78.608l54.864-64H280c4.408,0,8,3.584,8,8V247.997z     M352,231.997c0,4.408-3.592,8-8,8h-40v-112h40c4.416,0,8,3.592,8,8V231.997z" data-original="#000000" class="active-path" data-old_color="#000000" fill="#09243F"/>
	</g>
</g></g> </svg>
