<?xml version="1.0"?>
<svg xmlns="http://www.w3.org/2000/svg" xmlns:xlink="http://www.w3.org/1999/xlink" version="1.1" id="Layer_1" x="0px" y="0px" viewBox="0 0 512 512" style="enable-background:new 0 0 512 512;" xml:space="preserve" width="512px" height="512px" class=""><g><path style="fill:#FFFFFF" d="M441.412,140.235v338.781c0,18.219-14.778,32.983-32.983,32.983H103.572  c-18.219,0-32.983-14.764-32.983-32.983V32.983C70.588,14.764,85.352,0,103.572,0h197.605L441.412,140.235z" data-original="#518EF8" class="active-path" data-old_color="#518EF8"/><g>
	<rect x="161.18" y="257.054" style="fill:#09243F" width="189.626" height="21.071" data-original="#FFFFFF" class="" data-old_color="#FFFFFF"/>
	<rect x="161.18" y="304.112" style="fill:#09243F" width="189.626" height="21.071" data-original="#FFFFFF" class="" data-old_color="#FFFFFF"/>
	<rect x="161.18" y="351.171" style="fill:#09243F" width="189.626" height="21.071" data-original="#FFFFFF" class="" data-old_color="#FFFFFF"/>
	<rect x="161.18" y="398.23" style="fill:#09243F" width="134.855" height="21.071" data-original="#FFFFFF" class="" data-old_color="#FFFFFF"/>
</g><polygon style="fill:#FFFFFF" points="320.31,137.188 441.412,187.079 441.412,140.235 372.751,119.962 " data-original="#3A5BBC" class="" data-old_color="#3A5BBC"/><path style="fill:#09243F" d="M441.412,140.235H334.16c-18.22,0-32.983-14.764-32.983-32.983V0L441.412,140.235z" data-original="#ACD1FC" class="" data-old_color="#ACD1FC"/></g> </svg>
