<?xml version="1.0"?>
<svg xmlns="http://www.w3.org/2000/svg" height="512px" viewBox="-13 0 361 361.81504" width="512px" class=""><g><path d="m42.113281 348.160156h-28.050781v-26.902344h11.394531c3.769531 0 6.828125-3.050781 6.828125-6.824218 0-3.773438-3.058594-6.828125-6.828125-6.828125h-11.394531v-27.710938h27.304688c3.769531 0 6.828124-3.054687 6.828124-6.828125 0-3.773437-3.058593-6.828125-6.828124-6.828125h-34.132813c-3.769531 0-6.828125 3.054688-6.828125 6.828125v81.921875c0 3.773438 3.058594 6.824219 6.828125 6.824219h34.878906c3.769531 0 6.824219-3.050781 6.824219-6.824219 0-3.773437-3.054688-6.828125-6.824219-6.828125zm0 0" data-original="#000000" class="active-path" data-old_color="#000000" fill="#09243F"/><path d="m328.085938 266.238281h-34.132813c-3.769531 0-6.824219 3.054688-6.824219 6.828125v81.921875c0 3.773438 3.054688 6.824219 6.824219 6.824219s6.828125-3.050781 6.828125-6.824219v-33.730469h12.761719c3.769531 0 6.824219-3.050781 6.824219-6.824218 0-3.773438-3.054688-6.828125-6.824219-6.828125h-12.761719v-27.710938h27.304688c3.773437 0 6.828124-3.054687 6.828124-6.828125 0-3.773437-3.054687-6.828125-6.828124-6.828125zm0 0" data-original="#000000" class="active-path" data-old_color="#000000" fill="#09243F"/><path d="m167.660156 0c-92.222656 0-167.253906 75.027344-167.253906 167.253906v71.679688c0 3.773437 3.058594 6.828125 6.828125 6.828125h123.769531c8.191406 9.15625 20.054688 14.964843 33.28125 14.964843 13.242188 0 25.125-5.824218 33.3125-15.007812.074219.003906.136719.042969.210938.042969h130.277344c3.773437 0 6.828124-3.054688 6.828124-6.828125v-71.679688c0-92.226562-75.03125-167.253906-167.253906-167.253906zm-3.375 247.074219c-17.113281 0-31.039062-13.917969-31.039062-31.035157 0-17.113281 13.921875-31.039062 31.039062-31.039062 17.113282 0 31.03125 13.925781 31.03125 31.039062 0 17.117188-13.917968 31.035157-31.03125 31.035157zm156.976563-14.96875h-27.308594v-37.492188c0-3.773437-3.054687-6.828125-6.824219-6.828125-3.769531 0-6.828125 3.054688-6.828125 6.828125v37.492188h-74.367187c1.933594-4.992188 3.039062-10.398438 3.039062-16.066407 0-4.605468-.707031-9.054687-2.003906-13.238281l74.46875-50.1875c3.125-2.105469 3.949219-6.347656 1.84375-9.472656-2.105469-3.140625-6.347656-3.945313-9.476562-1.847656l-72.941407 49.15625c-8.089843-11.53125-21.457031-19.101563-36.582031-19.101563-24.640625 0-44.691406 20.046875-44.691406 44.695313 0 5.667969 1.105468 11.070312 3.039062 16.066406h-67.609375v-37.496094c0-62.105469 50.53125-112.636719 112.640625-112.636719 30.992188 0 59.878906 12.324219 81.335938 34.710938 2.609375 2.714844 6.933594 2.808594 9.652344.199219 2.722656-2.605469 2.8125-6.925781.203124-9.652344-24.054687-25.09375-56.441406-38.914063-91.191406-38.914063-69.640625 0-126.292968 56.652344-126.292968 126.292969v37.492188h-27.304688v-64.851563c0-84.695312 68.902344-153.601562 153.597656-153.601562 84.699219 0 153.601563 68.90625 153.601563 153.601562zm0 0" data-original="#000000" class="active-path" data-old_color="#000000" fill="#09243F"/><path d="m255.449219 267.820312-57.039063 47.535157c-11.816406 9.851562-28.800781 9.644531-40.386718-.488281-9.367188-8.191407-21.371094-12.058594-33.734376-10.867188-12.390624 1.1875-23.421874 7.253906-31.0625 17.074219l-23.117187 29.722656c-2.3125 2.976563-1.777344 7.265625 1.199219 9.578125 1.246094.972656 2.722656 1.441406 4.1875 1.441406 2.03125 0 4.046875-.90625 5.394531-2.632812l23.113281-29.722656c5.308594-6.824219 12.976563-11.046876 21.585938-11.867188 8.617187-.839844 16.933594 1.863281 23.441406 7.554688 16.660156 14.574218 41.105469 14.859374 58.117188.699218l57.039062-47.53125c2.898438-2.414062 3.289062-6.722656.875-9.621094-2.414062-2.902343-6.71875-3.289062-9.613281-.875zm0 0" data-original="#000000" class="active-path" data-old_color="#000000" fill="#09243F"/></g> </svg>
