<?xml version="1.0"?>
<svg xmlns="http://www.w3.org/2000/svg" xmlns:xlink="http://www.w3.org/1999/xlink" version="1.1" id="Capa_1" x="0px" y="0px" viewBox="0 0 27.269 27.269" style="enable-background:new 0 0 27.269 27.269;" xml:space="preserve" width="512px" height="512px" class=""><g><g>
	<path d="M25.323,1.946H1.949C0.869,1.946,0,2.816,0,3.895v19.479c0,1.075,0.869,1.949,1.949,1.949h23.375   c1.071,0,1.945-0.874,1.945-1.949V3.895C27.269,2.816,26.395,1.946,25.323,1.946z M9.314,3.412c0.535,0,0.973,0.431,0.973,0.973   c0,0.536-0.438,0.972-0.973,0.972c-0.539,0-0.976-0.436-0.976-0.972C8.339,3.842,8.776,3.412,9.314,3.412z M6.332,3.412   c0.537,0,0.974,0.431,0.974,0.973c0,0.536-0.437,0.972-0.974,0.972c-0.539,0-0.975-0.436-0.975-0.972   C5.356,3.842,5.792,3.412,6.332,3.412z M3.408,3.412c0.539,0,0.975,0.431,0.975,0.973c0,0.536-0.436,0.972-0.975,0.972   c-0.537,0-0.971-0.436-0.971-0.972C2.437,3.842,2.871,3.412,3.408,3.412z M25.323,23.375H1.949V6.838h23.375L25.323,23.375   L25.323,23.375z M25.323,4.891H11.687V3.914h13.636V4.891z" data-original="#000000" class="active-path" data-old_color="#FFFFFF" background-color="#FFFFFF" fill="#FFFFFF"/>
	<g>
	</g>
	<g>
	</g>
	<g>
	</g>
	<g>
	</g>
	<g>
	</g>
	<g>
	</g>
	<g>
	</g>
	<g>
	</g>
	<g>
	</g>
	<g>
	</g>
	<g>
	</g>
	<g>
	</g>
	<g>
	</g>
	<g>
	</g>
	<g>
	</g>
</g></g> </svg>
